<svg version="1.1" preserveAspectRatio="none" xmlns="http://www.w3.org/2000/svg" width="500" height="500" viewBox="0 0 500 500"><rect width="100%" height="100%" fill="#E9E9E9" fill-opacity="1"/><svg viewBox="133.9542 461.3599 197.5362 240" width="274.0814775" height="333" x="112.9593px" y="83.5px" xmlns="http://www.w3.org/2000/svg" xmlns:xlink="http://www.w3.org/1999/xlink" preserveAspectRatio="none"><defs></defs><style>.companyName {fill:#1e1e1e;fill-opacity:1;}.icon3-str {stroke:#848383;stroke-opacity:1;}.shape {fill:#F3F3F3;fill-opacity:1;}.shapeStroke-str {stroke:#1e1e1e;stroke-opacity:1;}</style><g opacity="1" transform="rotate(0 153.9542 481.3599)">
<svg width="177.5362" height="220" x="153.9542" y="481.3599" version="1.1" preserveAspectRatio="none" viewBox="0 0 177.5362 220">
  <defs><rect x="14.202896" y="14.202896" width="149.13040800000002" height="191.594208" rx="0%" ry="0%" id="id-ZzOTVRhf1724050952411"></rect></defs><use class="shape shapeStroke-str" style="stroke-width:28.405792;" xlink:href="#id-ZzOTVRhf1724050952411"></use>
</svg>
</g><g opacity="1" transform="rotate(0 133.9542 461.3599)">
<svg width="177.5362" height="220" x="133.9542" y="461.3599" version="1.1" preserveAspectRatio="none" viewBox="0 0 177.5362 220">
  <defs><rect x="2.2192025" y="2.2192025" width="173.09779500000002" height="215.561595" rx="0px" ry="0px" id="id-7KDWqqaq1724050952411"></rect></defs><use class="shape shapeStroke-str" style="stroke-width:4.438405;" xlink:href="#id-7KDWqqaq1724050952411"></use>
</svg>
</g><g opacity="1" transform="rotate(0 183.9542 511.3599)">
<svg width="77.5362" height="120" x="183.9542" y="511.3599" version="1.1" preserveAspectRatio="none" viewBox="1.96 -29.08 19 29.4">
  <g transform="matrix(1 0 0 1 0 0)" class="companyName"><path id="id-D6z1nYkh1" d="M19.12-23.76Q17.56-24.60 15.80-25.12Q14.04-25.64 12.48-25.64L12.48-25.64Q10.12-25.64 8.74-24.58Q7.36-23.52 7.36-21.68L7.36-21.68Q7.36-19.88 8.98-18.74Q10.60-17.60 13.60-16.48L13.60-16.48Q15.84-15.68 17.38-14.74Q18.92-13.80 19.94-12.14Q20.96-10.48 20.96-7.92L20.96-7.92Q20.96-5.60 19.80-3.72Q18.64-1.84 16.50-0.76Q14.36 0.32 11.48 0.32L11.48 0.32Q8.80 0.32 6.32-0.54Q3.84-1.40 1.96-2.72L1.96-2.72L3.68-5.80Q5.16-4.68 7.24-3.90Q9.32-3.12 11.12-3.12L11.12-3.12Q13.44-3.12 15.18-4.32Q16.92-5.52 16.92-7.88L16.92-7.88Q16.92-9.88 15.46-11.06Q14-12.24 11.36-13.28L11.36-13.28Q8.92-14.20 7.30-15.08Q5.68-15.96 4.52-17.50Q3.36-19.04 3.36-21.36L3.36-21.36Q3.36-24.76 5.74-26.86Q8.12-28.96 11.92-29.08L11.92-29.08Q16.60-29.08 20.60-26.76L20.60-26.76L19.12-23.76Z"/></g>
</svg>
</g></svg></svg>